<?xml version="1.0" ?><!DOCTYPE svg  PUBLIC '-//W3C//DTD SVG 1.1//EN'  'http://www.w3.org/Graphics/SVG/1.1/DTD/svg11.dtd'><svg enable-background="new 0 0 512 512" id="Layer_1" version="1.1" viewBox="0 0 512 512" xml:space="preserve" xmlns="http://www.w3.org/2000/svg" xmlns:xlink="http://www.w3.org/1999/xlink"><g><path d="M273.1,295.2c0,21.5,0.3,43-0.1,64.5c-0.2,10.9,1,21.7,2.4,32.3c2.1,15.9,12.7,25.7,27.4,31.1   c19.6,7.2,38.9,4.5,58-1.9c10.5-3.5,20.1-8.9,29.1-15.5c0.9-0.7,1.7-1.9,3-1.3c1.3,0.6,0.9,2,0.9,3.1c0,24.2,0,48.3,0,72.5   c0,2.8-1.3,3.9-3.9,5.3c-7.4,4.1-15.3,7.2-23,10.4c-7.1,3-14.6,5.1-22,7.5c-7.3,2.4-15,2.8-22.2,5.4c-0.5,0.2-1,0.1-1.5,0.2   c-14,1.3-28.1,3.2-42.1,1.8c-22.7-2.3-45-6.8-64.6-19.7c-18.3-12-33.2-27-41.5-47.7c-2.7-6.7-4.7-13.5-5-20.9   c-2.9-67.4-1.4-134.9-1.9-202.4c-0.1-7.1,0-7.1-7.4-7.1c-12.3,0-24.7-0.1-37,0.1c-3.8,0.1-4.8-1.2-4.8-4.8   c0.2-20.8,0.1-41.7,0-62.5c0-4.1,0-6.5,5.3-8.5c10.2-3.7,19.7-9.4,28.4-16c14.4-11,26.2-24.4,35.2-40.3c7.8-13.9,13-28.7,16.5-44.3   c2.1-9.2,3.8-18.5,4.9-27.9c0.3-2.2,1.1-3.9,3.7-3.8c8.4,0.3,16.7-3,25.1-1.6c11,1.8,22.1,1.6,33.1,1.5c3.9,0,3.6,2.4,3.6,5   c0,24.8,0.1,49.7,0.1,74.5c0,14,0.3,28-0.1,42c-0.1,5,1.5,6,6.2,6c31.5-0.2,63-0.1,94.5-0.1c6.3,0,6.5,0.2,6.5,6.4   c0,22.8-0.1,45.7,0.1,68.5c0,4.7-1.5,5.9-6.1,5.9c-31.7-0.2-63.3,0-95-0.2c-5.3,0-6.3,1.6-6.2,6.5c0.2,25.3,0.1,50.7,0.1,76   C273,295.2,273,295.2,273.1,295.2z" fill="#A7A7A7"/></g></svg>